<svg xmlns="http://www.w3.org/2000/svg" xmlns:xlink="http://www.w3.org/1999/xlink" version="1.1" viewBox="0 0 172 172"><g fill="none" fill-rule="nonzero" stroke="none" stroke-width="1" stroke-linecap="butt" stroke-linejoin="miter" stroke-miterlimit="10" stroke-dasharray="" stroke-dashoffset="0" font-family="none" font-weight="none" font-size="none" text-anchor="none" style="mix-blend-mode: normal"><path d="M0,172v-172h172v172z" fill="none"/><g fill="#ffffff"><path d="M140.99734,99.4197c-4.14177,-24.99912 -22.51655,-48.13749 -48.24533,-60.99718l4.91241,-15.64461c1.27959,-4.07593 -0.52977,-8.48847 -4.30134,-10.49166c-2.45234,-1.30344 -5.39146,-1.38675 -7.92477,-0.20089l-50.47327,23.62346c-5.46268,2.55648 -7.77527,9.03605 -5.23861,14.45673l23.6117,50.4474c1.42773,3.05065 4.54624,5.13682 8.07695,5.13682c3.57941,0 6.79837,-2.12917 8.20124,-5.42438l6.10062,-14.33244c15.98256,7.89117 35.13805,22.40065 40.6612,39.71755c2.89343,9.07266 1.76334,18.11879 -3.35803,26.88474c-1.54699,2.64349 -1.14353,4.46797 -0.53313,5.53289c0.70681,1.23222 1.99816,1.96759 3.45478,1.96725c1.43479,-0.00034 2.89141,-0.69405 4.33225,-2.06534c16.9457,-16.17741 24.30541,-36.99243 20.72331,-58.61034zM123.68345,144.05571c6.70128,-28.45995 -21.57928,-53.57162 -48.30512,-65.65495c-1.70488,-0.7703 -3.7326,0.00101 -4.47502,1.74553l-7.4689,17.54702c-0.41253,0.96884 -1.44352,1.50399 -2.46813,1.29067c-0.67423,-0.14009 -1.25103,-0.59595 -1.54263,-1.21979l-23.6117,-50.4474c-0.97321,-2.07878 -0.07895,-4.5496 2.00152,-5.52348l50.47327,-23.62346c0.60704,-0.28387 1.33132,-0.26539 1.92358,0.04905c0.91543,0.4861 1.3545,1.55741 1.04376,2.54607l-5.78249,18.41677c-0.50559,1.61015 0.2617,3.34527 1.7929,4.05443c40.66221,18.83736 62.85088,64.8655 36.41898,100.81955z"/></g></g></svg>