<svg xmlns="http://www.w3.org/2000/svg" xmlns:xlink="http://www.w3.org/1999/xlink" version="1.1" viewBox="0 0 172 172"><defs><linearGradient x1="124.58175" y1="113.01117" x2="161.25" y2="113.01117" gradientUnits="userSpaceOnUse" id="color-1"><stop offset="0" stop-color="#cc5928"/><stop offset="1" stop-color="#a63f1b"/></linearGradient><linearGradient x1="78.4965" y1="82.56717" x2="172.97108" y2="100.97117" gradientUnits="userSpaceOnUse" id="color-2"><stop offset="0.016" stop-color="#e05f29"/><stop offset="1" stop-color="#ff7d4a"/></linearGradient><linearGradient x1="74.55125" y1="103.92383" x2="138.34892" y2="122.94058" gradientUnits="userSpaceOnUse" id="color-3"><stop offset="0" stop-color="#782304"/><stop offset="0.979" stop-color="#b85025"/></linearGradient><linearGradient x1="94.08758" y1="99.40167" x2="94.08758" y2="134.40725" gradientUnits="userSpaceOnUse" id="color-4"><stop offset="0.011" stop-color="#571600"/><stop offset="0.265" stop-color="#5b1801" stop-opacity="0.743"/><stop offset="0.495" stop-color="#661f06" stop-opacity="0.51"/><stop offset="0.716" stop-color="#782b0d" stop-opacity="0.287"/><stop offset="0.929" stop-color="#923b17" stop-opacity="0.072"/><stop offset="1" stop-color="#9c411b" stop-opacity="0"/></linearGradient><linearGradient x1="52.93658" y1="137.14133" x2="137.28467" y2="36.84025" gradientUnits="userSpaceOnUse" id="color-5"><stop offset="0" stop-color="#a63f1b"/><stop offset="1" stop-color="#cc5928"/></linearGradient><linearGradient x1="26.10458" y1="119.669" x2="106.15983" y2="24.88983" gradientUnits="userSpaceOnUse" id="color-6"><stop offset="0.016" stop-color="#e05f29"/><stop offset="1" stop-color="#ff7d4a"/></linearGradient><linearGradient x1="39.46683" y1="105.5005" x2="37.625" y2="139.85392" gradientUnits="userSpaceOnUse" id="color-7"><stop offset="0.021" stop-color="#b85025"/><stop offset="1" stop-color="#782304"/></linearGradient><linearGradient x1="99.588" y1="91.75842" x2="137.77558" y2="80.71458" gradientUnits="userSpaceOnUse" id="color-8"><stop offset="0.011" stop-color="#571600"/><stop offset="0.222" stop-color="#5d1a02" stop-opacity="0.786"/><stop offset="0.5" stop-color="#6d2409" stop-opacity="0.506"/><stop offset="0.813" stop-color="#883513" stop-opacity="0.19"/><stop offset="1" stop-color="#9c411b" stop-opacity="0"/></linearGradient><linearGradient x1="60.83067" y1="103.1355" x2="64.69708" y2="98.556" gradientUnits="userSpaceOnUse" id="color-9"><stop offset="0" stop-color="#a63f1b"/><stop offset="1" stop-color="#cc5928"/></linearGradient><linearGradient x1="124.96517" y1="111.19083" x2="124.96517" y2="96.41675" gradientUnits="userSpaceOnUse" id="color-10"><stop offset="0.016" stop-color="#e05f29"/><stop offset="1" stop-color="#ff7d4a"/></linearGradient><linearGradient x1="66.63208" y1="73.94925" x2="66.69658" y2="73.87042" gradientUnits="userSpaceOnUse" id="color-11"><stop offset="0" stop-color="#a63f1b"/><stop offset="1" stop-color="#cc5928"/></linearGradient><linearGradient x1="62.92333" y1="75.75525" x2="65.38508" y2="72.84558" gradientUnits="userSpaceOnUse" id="color-12"><stop offset="0" stop-color="#a63f1b"/><stop offset="1" stop-color="#cc5928"/></linearGradient><linearGradient x1="63.32825" y1="74.26817" x2="66.65358" y2="75.39333" gradientUnits="userSpaceOnUse" id="color-13"><stop offset="0.016" stop-color="#e05f29"/><stop offset="1" stop-color="#ff7d4a"/></linearGradient><linearGradient x1="93.2455" y1="43.84925" x2="93.31358" y2="43.77042" gradientUnits="userSpaceOnUse" id="color-14"><stop offset="0" stop-color="#a63f1b"/><stop offset="1" stop-color="#cc5928"/></linearGradient><linearGradient x1="89.54033" y1="45.65525" x2="91.9985" y2="42.742" gradientUnits="userSpaceOnUse" id="color-15"><stop offset="0" stop-color="#a63f1b"/><stop offset="1" stop-color="#cc5928"/></linearGradient><linearGradient x1="89.94525" y1="44.16458" x2="93.267" y2="45.28975" gradientUnits="userSpaceOnUse" id="color-16"><stop offset="0.016" stop-color="#e05f29"/><stop offset="1" stop-color="#ff7d4a"/></linearGradient><linearGradient x1="102.99575" y1="41.69208" x2="103.03875" y2="41.64192" gradientUnits="userSpaceOnUse" id="color-17"><stop offset="0" stop-color="#a63f1b"/><stop offset="1" stop-color="#cc5928"/></linearGradient><linearGradient x1="100.58417" y1="42.86742" x2="102.18592" y2="40.97183" gradientUnits="userSpaceOnUse" id="color-18"><stop offset="0" stop-color="#a63f1b"/><stop offset="1" stop-color="#cc5928"/></linearGradient><linearGradient x1="100.84933" y1="41.89992" x2="103.01008" y2="42.63092" gradientUnits="userSpaceOnUse" id="color-19"><stop offset="0.016" stop-color="#e05f29"/><stop offset="1" stop-color="#ff7d4a"/></linearGradient><linearGradient x1="87.25417" y1="35.0665" x2="87.29717" y2="35.01633" gradientUnits="userSpaceOnUse" id="color-20"><stop offset="0" stop-color="#a63f1b"/><stop offset="1" stop-color="#cc5928"/></linearGradient><linearGradient x1="84.84258" y1="36.24183" x2="86.44075" y2="34.34625" gradientUnits="userSpaceOnUse" id="color-21"><stop offset="0" stop-color="#a63f1b"/><stop offset="1" stop-color="#cc5928"/></linearGradient><linearGradient x1="85.10417" y1="35.27433" x2="87.2685" y2="36.00533" gradientUnits="userSpaceOnUse" id="color-22"><stop offset="0.016" stop-color="#e05f29"/><stop offset="1" stop-color="#ff7d4a"/></linearGradient><linearGradient x1="57.75975" y1="76.18883" x2="57.79917" y2="76.14225" gradientUnits="userSpaceOnUse" id="color-23"><stop offset="0" stop-color="#a63f1b"/><stop offset="1" stop-color="#cc5928"/></linearGradient><linearGradient x1="55.5775" y1="77.25308" x2="57.02875" y2="75.53667" gradientUnits="userSpaceOnUse" id="color-24"><stop offset="0" stop-color="#a63f1b"/><stop offset="1" stop-color="#cc5928"/></linearGradient><linearGradient x1="55.81758" y1="76.37517" x2="57.77408" y2="77.03808" gradientUnits="userSpaceOnUse" id="color-25"><stop offset="0.016" stop-color="#e05f29"/><stop offset="1" stop-color="#ff7d4a"/></linearGradient><linearGradient x1="111.32342" y1="113.65617" x2="111.86092" y2="113.01833" gradientUnits="userSpaceOnUse" id="color-26"><stop offset="0.011" stop-color="#571600"/><stop offset="0.265" stop-color="#5b1801" stop-opacity="0.743"/><stop offset="0.495" stop-color="#661f06" stop-opacity="0.51"/><stop offset="0.716" stop-color="#782b0d" stop-opacity="0.287"/><stop offset="0.929" stop-color="#923b17" stop-opacity="0.072"/><stop offset="1" stop-color="#9c411b" stop-opacity="0"/></linearGradient><linearGradient x1="111.42733" y1="112.64567" x2="111.76058" y2="112.2515" gradientUnits="userSpaceOnUse" id="color-27"><stop offset="0.011" stop-color="#571600"/><stop offset="0.265" stop-color="#5b1801" stop-opacity="0.743"/><stop offset="0.495" stop-color="#661f06" stop-opacity="0.51"/><stop offset="0.716" stop-color="#782b0d" stop-opacity="0.287"/><stop offset="0.929" stop-color="#923b17" stop-opacity="0.072"/><stop offset="1" stop-color="#9c411b" stop-opacity="0"/></linearGradient><linearGradient x1="110.30217" y1="122.19883" x2="114.99633" y2="122.83308" gradientUnits="userSpaceOnUse" id="color-28"><stop offset="0" stop-color="#541600"/><stop offset="1" stop-color="#cc5928"/></linearGradient><linearGradient x1="109.66792" y1="122.01967" x2="115.15042" y2="122.7435" gradientUnits="userSpaceOnUse" id="color-29"><stop offset="0" stop-color="#a63f1b"/><stop offset="1" stop-color="#b85025"/></linearGradient><linearGradient x1="116.26125" y1="119.6905" x2="119.69408" y2="120.15275" gradientUnits="userSpaceOnUse" id="color-30"><stop offset="0" stop-color="#541600"/><stop offset="1" stop-color="#cc5928"/></linearGradient><linearGradient x1="115.799" y1="119.5615" x2="119.80517" y2="120.08825" gradientUnits="userSpaceOnUse" id="color-31"><stop offset="0" stop-color="#a63f1b"/><stop offset="1" stop-color="#b85025"/></linearGradient></defs><g fill="none" fill-rule="nonzero" stroke="none" stroke-width="1" stroke-linecap="butt" stroke-linejoin="miter" stroke-miterlimit="10" stroke-dasharray="" stroke-dashoffset="0" font-family="none" font-weight="none" font-size="none" text-anchor="none" style="mix-blend-mode: normal"><path d="M0,172v-172h172v172z" fill="none"/><g><path d="M124.99383,102.01033l-0.41208,33.7765l35.22058,-14.45875l1.44767,-31.09258z" fill="url(#color-1)"/><path d="M124.99383,102.01033l-34.70817,-9.39908l25.20517,-13.2225l45.75917,10.84675z" fill="url(#color-2)"/><path d="M124.58175,135.78683l-54.12625,-18.59033l19.83017,-24.58525l34.70817,9.39908z" fill="url(#color-3)"/><path d="M103.93458,128.69542l-20.1885,-6.93375l20.67942,-25.31983z" fill="url(#color-4)" opacity="0.75"/><path d="M49.48583,119.36442l16.73417,23.86142l66.93308,-81.96517l-11.15492,-25.72117z" fill="url(#color-5)"/><path d="M49.48583,119.36442l-38.73583,-14.97833l70.03267,-75.61192l41.2155,6.76533l-55.62408,64.30292l0.89942,4.54367h-4.83033z" fill="url(#color-6)"/><path d="M49.48583,119.36442l16.73417,23.86142l-38.11592,-16.26833l-17.35408,-22.57142" fill="url(#color-7)"/><path d="M104.4255,96.44183l20.56833,-5.7405l17.63358,-4.8805l-24.74292,-5.86233z" fill="url(#color-8)" opacity="0.75"/><path d="M62.44317,104.38608l3.93092,-4.54367l-5.23525,-0.33683z" fill="url(#color-9)"/><path d="M122.8725,101.437l2.12133,9.54242l2.064,-9.63917z" fill="url(#color-10)"/><path d="M66.48158,73.68767c0.1505,0.13258 0.27592,0.28308 0.3655,0.44433c-0.08242,-0.16483 -0.215,-0.30817 -0.3655,-0.44433z" fill="url(#color-11)"/><path d="M63.7905,75.25358c0,-0.89583 1.02842,-1.62325 2.3005,-1.62325c0.13975,0 0.258,0.03942 0.39058,0.05733c-0.42283,-0.37625 -1.04633,-0.63425 -1.77733,-0.63425c-1.27208,0 -2.3005,0.72742 -2.3005,1.62325c0,0.79908 0.83133,1.43333 1.90992,1.56592c-0.31175,-0.27233 -0.52317,-0.60917 -0.52317,-0.989z" fill="url(#color-12)"/><path d="M63.7905,75.25358c0,0.37983 0.215,0.71308 0.52317,0.989c0.13258,0.01792 0.25442,0.05733 0.39058,0.05733c1.27208,0 2.3005,-0.72742 2.3005,-1.62325c0,-0.37983 -0.215,-0.71308 -0.52317,-0.989c-0.13258,-0.01792 -0.25442,-0.05733 -0.39058,-0.05733c-1.27208,0 -2.3005,0.72742 -2.3005,1.62325z" fill="url(#color-13)"/><path d="M93.09858,43.58767c0.1505,0.13258 0.27592,0.28308 0.3655,0.44433c-0.086,-0.16842 -0.215,-0.30817 -0.3655,-0.44433z" fill="url(#color-14)"/><path d="M90.40392,45.15358c0,-0.89583 1.02842,-1.62325 2.3005,-1.62325c0.13975,0 0.258,0.03942 0.39058,0.05733c-0.42283,-0.37625 -1.04633,-0.63425 -1.77733,-0.63425c-1.27208,0 -2.3005,0.72742 -2.3005,1.62325c0,0.79908 0.83133,1.43333 1.90992,1.56592c-0.30817,-0.27592 -0.52317,-0.60917 -0.52317,-0.989z" fill="url(#color-15)"/><path d="M90.40392,45.15358c0,0.37983 0.215,0.71308 0.52317,0.989c0.13258,0.01792 0.25442,0.05733 0.39058,0.05733c1.27208,0 2.3005,-0.72742 2.3005,-1.62325c0,-0.37983 -0.215,-0.71308 -0.52317,-0.989c-0.13258,-0.01792 -0.25442,-0.05733 -0.39058,-0.05733c-1.2685,0 -2.3005,0.72742 -2.3005,1.62325z" fill="url(#color-16)"/><g><path d="M102.899,41.52008c0.09675,0.086 0.17917,0.18275 0.24008,0.28667c-0.05733,-0.10392 -0.14333,-0.19708 -0.24008,-0.28667z" fill="url(#color-17)"/><path d="M101.14675,42.54133c0,-0.58408 0.67008,-1.05708 1.49783,-1.05708c0.08958,0 0.16842,0.02508 0.25442,0.03583c-0.27592,-0.24367 -0.68083,-0.41208 -1.15742,-0.41208c-0.82775,0 -1.49783,0.473 -1.49783,1.05708c0,0.51958 0.54108,0.93167 1.24342,1.02125c-0.20067,-0.17917 -0.34042,-0.39775 -0.34042,-0.645z" fill="url(#color-18)"/><path d="M101.14675,42.54133c0,0.24725 0.13975,0.46583 0.34042,0.645c0.086,0.01075 0.16483,0.03583 0.25442,0.03583c0.82775,0 1.49783,-0.473 1.49783,-1.05708c0,-0.24725 -0.13975,-0.46583 -0.34042,-0.645c-0.086,-0.01075 -0.16483,-0.03583 -0.25442,-0.03583c-0.82775,0 -1.49783,0.473 -1.49783,1.05708z" fill="url(#color-19)"/></g><g><path d="M87.15742,34.89808c0.09675,0.086 0.17917,0.18275 0.24008,0.28667c-0.05733,-0.1075 -0.14333,-0.20067 -0.24008,-0.28667z" fill="url(#color-20)"/><path d="M85.40517,35.91575c0,-0.58408 0.67008,-1.05708 1.49783,-1.05708c0.08958,0 0.16842,0.02508 0.25442,0.03583c-0.27592,-0.24367 -0.68083,-0.4085 -1.15742,-0.4085c-0.82775,0 -1.49783,0.473 -1.49783,1.05708c0,0.51958 0.54108,0.93167 1.24342,1.02125c-0.20067,-0.18275 -0.34042,-0.40133 -0.34042,-0.64858z" fill="url(#color-21)"/><path d="M85.40517,35.91575c0,0.24725 0.13975,0.46583 0.34042,0.645c0.086,0.01075 0.16483,0.03583 0.25442,0.03583c0.82775,0 1.49783,-0.473 1.49783,-1.05708c0,-0.24725 -0.13975,-0.46583 -0.34042,-0.645c-0.086,-0.01075 -0.16483,-0.03583 -0.25442,-0.03583c-0.82775,0 -1.49783,0.473 -1.49783,1.05708z" fill="url(#color-22)"/></g><g><path d="M57.67375,76.03475c0.08958,0.07883 0.16125,0.16483 0.215,0.26158c-0.05017,-0.09675 -0.12542,-0.18275 -0.215,-0.26158z" fill="url(#color-23)"/><path d="M56.08992,76.95925c0,-0.52675 0.60558,-0.95675 1.3545,-0.95675c0.08242,0 0.15408,0.0215 0.22933,0.03225c-0.24725,-0.22217 -0.61633,-0.37267 -1.04633,-0.37267c-0.74892,0 -1.3545,0.42642 -1.3545,0.95675c0,0.46942 0.49092,0.84208 1.12517,0.9245c-0.18275,-0.16483 -0.30817,-0.36192 -0.30817,-0.58408z" fill="url(#color-24)"/><path d="M56.08992,76.95925c0,0.22217 0.12542,0.41925 0.30817,0.58408c0.07883,0.01075 0.1505,0.03225 0.22933,0.03225c0.74892,0 1.3545,-0.42642 1.3545,-0.95675c0,-0.22217 -0.12542,-0.41925 -0.30817,-0.58408c-0.07883,-0.01075 -0.1505,-0.03225 -0.22933,-0.03225c-0.74892,0 -1.3545,0.42642 -1.3545,0.95675z" fill="url(#color-25)"/></g><path d="M111.72117,112.88575c0,0.32608 -0.09675,0.6235 -0.24725,0.88508c0.14692,-0.26875 0.24725,-0.559 0.24725,-0.88508z" fill="url(#color-26)" opacity="0.75"/><path d="M111.4775,112.00067c0.1505,0.26158 0.24725,0.559 0.24725,0.88508c-0.00358,-0.32608 -0.10392,-0.61633 -0.24725,-0.88508z" fill="url(#color-27)" opacity="0.75"/><g><path d="M113.26917,123.74683c-0.62708,-0.08242 -1.12158,-0.59842 -1.12158,-1.25058c0,-0.65217 0.49092,-1.16817 1.12158,-1.25058c0.19708,0.12183 0.35475,0.29025 0.48017,0.48017c-0.26517,-0.42642 -0.71308,-0.72742 -1.25058,-0.72742c-0.82417,0 -1.49425,0.67008 -1.49425,1.49425c0,0.82417 0.67008,1.49425 1.49425,1.49425c0.5375,0 0.989,-0.301 1.25058,-0.72742c-0.12542,0.19708 -0.28308,0.3655 -0.48017,0.48733z" fill="url(#color-28)"/><path d="M113.26917,121.24567c-0.62708,0.08242 -1.12158,0.59842 -1.12158,1.25058c0,0.65217 0.49092,1.16817 1.12158,1.25058c0.42642,-0.26517 0.72742,-0.71308 0.72742,-1.25058c0,-0.5375 -0.301,-0.989 -0.72742,-1.25058z" fill="url(#color-29)"/></g><g><path d="M118.42917,120.82283c-0.45867,-0.06092 -0.82058,-0.43717 -0.82058,-0.91375c0,-0.47658 0.35833,-0.85283 0.82058,-0.91375c0.14333,0.08958 0.26158,0.21142 0.35117,0.35117c-0.1935,-0.31175 -0.52317,-0.53033 -0.91375,-0.53033c-0.602,0 -1.09292,0.49092 -1.09292,1.09292c0,0.602 0.49092,1.09292 1.09292,1.09292c0.39417,0 0.72383,-0.21858 0.91375,-0.53033c-0.08958,0.13617 -0.20783,0.26158 -0.35117,0.35117z" fill="url(#color-30)"/><path d="M118.42917,118.99175c-0.45867,0.06092 -0.82058,0.43717 -0.82058,0.91375c0,0.47658 0.35833,0.85283 0.82058,0.91375c0.31175,-0.1935 0.53033,-0.52317 0.53033,-0.91375c0,-0.39058 -0.21858,-0.72025 -0.53033,-0.91375z" fill="url(#color-31)"/></g></g></g></svg>