<svg xmlns="http://www.w3.org/2000/svg" xmlns:xlink="http://www.w3.org/1999/xlink" version="1.1" viewBox="0 0 172 172"><g fill="none" fill-rule="nonzero" stroke="none" stroke-width="1" stroke-linecap="butt" stroke-linejoin="miter" stroke-miterlimit="10" stroke-dasharray="" stroke-dashoffset="0" font-family="none" font-weight="none" font-size="none" text-anchor="none" style="mix-blend-mode: normal"><path d="M0,172v-172h172v172z" fill="none"/><g fill="#ffffff"><path d="M71.08424,17.80469c-7.0389,0 -12.63112,5.39079 -12.63112,12.42969v7.72656h5.375v-7.72656c0,-4.07526 3.18086,-7.05469 7.25612,-7.05469h29.83151c4.07526,0 7.25612,2.97943 7.25612,7.05469v7.72656h5.375v-7.72656c0,-7.0389 -5.59188,-12.42969 -12.63112,-12.42969zM40.58151,40.64844c-3.71066,0 -6.71875,3.00809 -6.71875,6.71875c0,3.71066 3.00809,6.71875 6.71875,6.71875h90.83698c3.71066,0 6.71875,-3.00809 6.71875,-6.71875c0,-3.71066 -3.00809,-6.71875 -6.71875,-6.71875zM43.33594,59.46094v82.97656c0,6.70296 4.756,12.09375 10.88451,12.09375h63.55911c6.12851,0 10.88451,-5.39079 10.88451,-12.09375v-82.97656zM66.25842,69.6073c1.45292,0.04259 2.60868,1.23265 2.60876,2.68619v63.49219c0,1.48427 -1.20323,2.6875 -2.6875,2.6875c-1.48427,0 -2.6875,-1.20323 -2.6875,-2.6875v-63.49219c0.00004,-0.7264 0.29413,-1.42184 0.81525,-1.92788c0.52112,-0.50604 1.2249,-0.77959 1.95099,-0.75831zM86.07874,69.6073c1.45292,0.04259 2.60868,1.23265 2.60876,2.68619v63.49219c0,1.48427 -1.20323,2.6875 -2.6875,2.6875c-1.48427,0 -2.6875,-1.20323 -2.6875,-2.6875v-63.49219c0.00004,-0.7264 0.29413,-1.42184 0.81525,-1.92788c0.52112,-0.50604 1.2249,-0.77959 1.95099,-0.75831zM105.89905,69.6073c1.45292,0.04259 2.60868,1.23265 2.60876,2.68619v63.49219c0,1.48427 -1.20323,2.6875 -2.6875,2.6875c-1.48427,0 -2.6875,-1.20323 -2.6875,-2.6875v-63.49219c0.00004,-0.7264 0.29413,-1.42184 0.81525,-1.92788c0.52112,-0.50604 1.2249,-0.77959 1.95099,-0.75831z"/></g></g></svg>