<svg xmlns="http://www.w3.org/2000/svg" xmlns:xlink="http://www.w3.org/1999/xlink" version="1.1" viewBox="0 0 172 172"><g fill="none" fill-rule="nonzero" stroke="none" stroke-width="1" stroke-linecap="butt" stroke-linejoin="miter" stroke-miterlimit="10" stroke-dasharray="" stroke-dashoffset="0" font-family="none" font-weight="none" font-size="none" text-anchor="none" style="mix-blend-mode: normal"><path d="M0,172v-172h172v172z" fill="none"/><g fill="#4a4cf6"><path d="M9.78698,1.67969l-8.10729,8.10729l160.53333,160.53333l8.10729,-8.10729l-34.54557,-34.54558c23.48267,-15.8999 35.0738,-38.13207 35.22864,-38.43125c0.65045,-0.95379 0.99781,-2.08173 0.99661,-3.2362c-0.00087,-1.29319 -0.43891,-2.54811 -1.24297,-3.56094c-0.59736,-0.96163 -33.62546,-53.77239 -84.75703,-53.77239c-14.50615,0 -27.52384,4.3011 -38.78958,10.43646zM86,45.86667c22.16507,0 40.13333,17.96827 40.13333,40.13333c0,9.01255 -3.03842,17.27366 -8.0625,23.96354l-12.3513,-12.3513c2.02693,-3.40147 3.2138,-7.35972 3.2138,-11.61224c0,-12.66493 -10.2684,-22.93333 -22.93333,-22.93333c-4.25252,0 -8.21077,1.18687 -11.61224,3.2138l-12.3513,-12.3513c6.68988,-5.02408 14.951,-8.0625 23.96354,-8.0625zM28.38672,52.03672c-17.03954,14.33306 -26.81016,29.87559 -27.13255,30.39114c-0.81047,1.01435 -1.25264,2.27376 -1.25417,3.57214c0.00113,1.12311 0.3321,2.22115 0.95182,3.15781c0.09858,0.20342 27.82281,54.17552 85.04818,54.17552c10.60667,0 20.18438,-1.87203 28.77864,-4.89349l-14.83724,-14.84843c-4.3516,1.6168 -9.03368,2.54192 -13.94141,2.54192c-22.16507,0 -40.13333,-17.96827 -40.13333,-40.13333c0,-4.90773 0.92513,-9.58981 2.54193,-13.94141zM63.13386,86.63828c0.344,12.13747 10.0792,21.88386 22.21667,22.22786z"/></g></g></svg>