<svg xmlns="http://www.w3.org/2000/svg" xmlns:xlink="http://www.w3.org/1999/xlink" version="1.1" viewBox="0 0 172 172"><g fill="none" fill-rule="nonzero" stroke="none" stroke-width="1" stroke-linecap="butt" stroke-linejoin="miter" stroke-miterlimit="10" stroke-dasharray="" stroke-dashoffset="0" font-family="none" font-weight="none" font-size="none" text-anchor="none" style="mix-blend-mode: normal"><path d="M0,172v-172h172v172z" fill="none"/><g fill="#4a4cf6"><path d="M65.145,44.1825c-34.45375,9.29875 -59.59531,38.10875 -60.845,39.56c-1.10187,1.29 -1.10187,3.225 0,4.515c1.49156,1.73344 36.93969,42.4625 81.7,42.4625c44.76031,0 80.20844,-40.72906 81.7,-42.4625c1.10188,-1.29 1.10188,-3.225 0,-4.515c-1.24969,-1.45125 -26.39125,-30.24781 -60.845,-39.56c10.19906,6.7725 16.985,18.32875 16.985,31.4975c-0.01344,20.89531 -16.94469,37.84 -37.84,37.84c-20.89531,0 -37.82656,-16.94469 -37.84,-37.84c0,-13.16875 6.78594,-24.725 16.985,-31.4975zM86,58.48c-9.50031,0 -17.2,7.69969 -17.2,17.2c0,9.50031 7.69969,17.2 17.2,17.2c9.50031,0 17.2,-7.69969 17.2,-17.2c0,-9.50031 -7.69969,-17.2 -17.2,-17.2z"/></g></g></svg>