<svg width="100%" viewBox="0 0 132 132" fill="none" xmlns="http://www.w3.org/2000/svg">
<path d="M94.8369 50.6763C91.8405 55.4326 92.5055 62.2457 96.3232 65.8939C100.14 69.5401 105.663 68.6411 108.66 63.8858L115.367 53.2367L101.546 40.028L94.8369 50.6763Z" fill="#E91E63"/>
<path d="M120.592 27.3706C116.773 23.7226 111.252 24.6213 108.254 29.3799L101.546 40.028L115.367 53.2356L122.075 42.5876C125.073 37.8311 124.408 31.019 120.592 27.3706Z" fill="#00BCD4"/>
<path d="M115.368 53.2369L101.547 40.0287L102.602 38.3538L116.423 51.5621L115.368 53.2369Z" fill="#00838F"/>
<path d="M103.43 41.8288L96.572 52.714C96.572 52.714 92.7349 58.806 97.7613 63.6074C98.1981 64.0238 98.6696 64.3491 99.1586 64.5869C95.2487 61.2082 99.085 55.1163 99.085 55.1163L105.943 44.2301L103.43 41.8288Z" fill="#FCE4EC"/>
<path d="M113.282 32.5823C113.282 32.5823 116.64 27.254 120.409 30.8554C120.1 30.3321 119.73 29.8478 119.293 29.4305C114.125 24.8508 110.767 30.1802 110.767 30.1802L103.43 41.8289L105.943 44.2302L113.282 32.5823Z" fill="#E0F7FA"/>
<path d="M105.944 44.2297L103.431 41.8284L104.486 40.1535L106.999 42.5549L105.944 44.2297Z" fill="#80DEEA"/>
<g clip-path="url(#clip0)">
<path d="M104.179 112.1C109.418 114.629 115.394 111.916 117.527 106.038C119.658 100.163 117.139 93.3495 111.901 90.8189L100.171 85.1583L92.449 106.437L104.179 112.1Z" fill="#E91E63"/>
<path d="M75.0921 85.5548C72.9599 91.4333 75.4778 98.2445 80.7196 100.775L92.449 106.437L100.17 85.1588L88.4408 79.4978C83.2009 76.9666 77.2255 79.6796 75.0921 85.5548Z" fill="#00BCD4"/>
<path d="M100.171 85.1573L92.4493 106.436L90.6043 105.545L98.3257 84.2667L100.171 85.1573Z" fill="#00838F"/>
<path d="M93.5016 103.536L105.492 109.325C105.492 109.325 112.203 112.563 115.009 104.825C115.252 104.153 115.402 103.462 115.467 102.771C113.607 108.693 106.897 105.456 106.897 105.456L94.9054 99.6671L93.5016 103.536Z" fill="#FCE4EC"/>
<path d="M82.0745 93.4725C82.0745 93.4725 76.2049 90.6381 78.3102 84.836C77.9306 85.3733 77.6052 85.9783 77.3615 86.652C74.8001 94.5098 80.6706 97.3436 80.6706 97.3436L93.5016 103.536L94.9053 99.6671L82.0745 93.4725Z" fill="#E0F7FA"/>
<path d="M94.9049 99.6669L93.5011 103.536L91.6561 102.645L93.06 98.7762L94.9049 99.6669Z" fill="#80DEEA"/>
</g>
<g clip-path="url(#clip1)">
<path d="M80.2188 9.04584C78.625 6.74604 76.6328 8.43256 76.6328 8.43256C76.6328 8.43256 77.1641 5.82612 75.7031 4.59957C74.375 3.52633 71.7187 5.51948 71.7187 5.51948C71.7187 5.51948 69.5937 3.98629 68.2656 4.44625C66.9375 4.90621 68.5312 9.04584 68.5312 9.04584L74.375 18.3983L77.9609 19.0116C80.75 17.7851 78.7578 13.9521 78.7578 13.9521C78.7578 13.9521 81.6797 11.039 80.2188 9.04584Z" fill="#C12929"/>
<path d="M28.5547 68.9939V77.2732C28.5547 77.8864 28.8203 78.4997 29.3516 78.653L33.7344 80.7995C34 80.9528 34.3984 80.9528 34.6641 80.7995L39.8438 78.8064L35.8594 70.5271L28.5547 68.9939Z" fill="#E8BB94"/>
<path d="M72.9141 22.9979C72.5156 22.9979 71.7188 22.9979 71.7188 22.9979C69.0625 22.9979 66.6719 26.9842 66.5391 30.204C66.5391 30.8172 66.5391 31.1239 66.5391 31.1239C66.5391 31.1239 74.2422 29.1307 73.0469 22.9979C73.0469 22.9979 73.0469 22.9979 72.9141 22.9979Z" fill="#C12929"/>
<path d="M29.3516 78.6531C28.8203 78.3464 28.5547 77.8865 28.5547 77.2732L25.2344 93.5251H30.5469L33.7344 80.7995L29.3516 78.6531Z" fill="#EDBF36"/>
<path d="M75.7031 18.5517C74.9062 18.3984 73.0469 23.1513 73.0469 23.1513L81.0156 24.6845C81.0156 24.6845 82.2109 19.165 75.7031 18.5517Z" fill="#EDBF36"/>
<path d="M18.9922 92.1452C23.375 88.7721 22.7109 82.0261 18.1953 79.2663C14.6094 77.2732 3.98438 79.4196 3.98438 85.3991C3.98438 91.9919 15.1406 95.0583 18.9922 92.1452Z" fill="#F4C69D"/>
<path d="M55.3828 17.3251C54.7188 19.165 54.4531 21.0048 53.7891 22.6913C50.4688 30.6639 37.8516 40.1698 30.6797 40.1698C28.1563 40.1698 25.7656 38.0233 25.3672 35.1102C25.2344 33.8836 22.5781 25.7577 20.7187 23.1513C17.3984 18.705 13.6797 18.245 9.03125 17.6318C7.03906 17.3251 5.04687 18.3984 4.25 20.5448C3.98437 21.4647 3.85156 22.538 4.11719 23.6112L5.44531 30.6639C4.51562 32.5038 3.98437 34.6502 3.98437 36.7967C3.98437 40.783 5.71094 44.4627 8.36719 46.6092C7.83594 48.449 7.70312 50.5955 9.29687 53.0486C10.4922 55.3484 12.3516 56.7283 14.6094 56.7283C14.6094 60.5613 16.2031 64.2409 18.8594 66.5407C20.5859 68.0739 22.4453 69.1472 24.4375 70.0671C26.1641 70.8337 33.3359 71.1403 34.6641 72.8268C36.125 74.6667 37.0547 77.1198 39.0469 78.4997C39.8438 78.9596 40.6406 79.2663 41.5703 79.5729C43.5625 80.0329 45.8203 79.8795 47.8125 79.8795C50.0703 79.8795 51.5313 77.1198 52.7266 75.2799C53.9219 73.5934 55.6484 71.447 57.375 70.6804C64.8125 67.0007 66.9375 60.4079 68 50.4422C68.5313 45.6893 66.9375 35.7235 66.5391 31.2772C66.2734 27.5975 68.7969 22.9979 71.7188 22.9979H73.0469L75.7031 18.5517C75.7031 6.2861 59.3672 5.67282 55.3828 17.3251Z" fill="#F4CDAB"/>
<path d="M42.5 79.7262L45.1562 93.525H50.4688L47.8125 79.7262H42.5Z" fill="#EDBF36"/>
<path d="M68 45.9959C66.9375 55.9617 64.8125 62.5544 57.375 66.2341C55.6484 67.154 53.9219 69.3005 52.7266 70.8337C51.5313 72.5202 50.0703 75.4333 47.8125 75.4333C45.6875 75.4333 43.5625 75.5866 41.5703 75.1266C40.6406 74.9733 39.8437 74.6667 39.0469 74.0534C37.0547 72.6735 36.125 70.2204 34.6641 68.3805C33.3359 66.694 26.1641 66.5407 24.4375 65.6208C22.4453 64.7009 20.5859 63.6276 18.8594 62.0944C16.2031 59.7946 14.6094 56.115 14.6094 52.282C12.3516 52.282 10.4922 50.7488 9.16406 48.7556C8.76563 47.989 8.5 47.3758 8.23437 46.7625C7.70312 48.6023 7.70313 50.7488 9.16406 53.0486C10.4922 55.3484 12.3516 56.7283 14.6094 56.7283C14.6094 60.5612 16.2031 64.2409 18.8594 66.5407C20.5859 68.0739 22.4453 69.1472 24.4375 70.0671C26.1641 70.8337 33.3359 71.1403 34.6641 72.8268C36.125 74.6667 37.0547 77.1198 39.0469 78.4997C39.8437 78.9596 40.6406 79.2663 41.5703 79.5729C43.5625 80.0328 45.8203 79.8795 47.8125 79.8795C50.0703 79.8795 51.5313 77.1198 52.7266 75.2799C53.9219 73.5934 55.6484 71.4469 57.375 70.6803C64.8125 67.0007 66.9375 60.4079 68 50.4422C68.1328 49.2156 68.1328 47.5291 68 45.8426C68 45.6892 68 45.8426 68 45.9959Z" fill="#F4C59C"/>
<path d="M18.9922 87.8522C15.5391 90.4586 6.64062 88.3121 4.51563 83.4059C4.11719 84.0192 3.98438 84.6324 3.98438 85.399C3.98438 91.9918 15.1406 95.0582 18.9922 92.1451C21.6484 90.152 22.4453 86.7789 21.6484 83.8658C21.1172 85.399 20.3203 86.7789 18.9922 87.8522Z" fill="#F4BD8E"/>
<path d="M10.4922 27.2909L9.29688 24.5312C11.1562 23.4579 13.1484 22.998 15.2734 23.1513L15.1406 26.2177C13.5469 26.0644 11.9531 26.371 10.4922 27.2909Z" fill="#F4C59C"/>
<path d="M54.4531 95.0582H45.1562C44.3594 95.0582 43.8281 94.4449 43.8281 93.525C43.8281 92.6051 44.3594 91.9918 45.1562 91.9918H54.4531C55.25 91.9918 55.7812 92.6051 55.7812 93.525C55.7812 94.4449 55.25 95.0582 54.4531 95.0582Z" fill="#EDBF36"/>
<path d="M35.8594 95.0582H25.2344C24.4375 95.0582 23.9062 94.4449 23.9062 93.525C23.9062 92.6051 24.4375 91.9918 25.2344 91.9918H35.8594C36.6563 91.9918 37.1875 92.6051 37.1875 93.525C37.1875 94.4449 36.6563 95.0582 35.8594 95.0582Z" fill="#EDBF36"/>
<path d="M68.6641 17.9383C69.6176 17.9383 70.3906 17.046 70.3906 15.9452C70.3906 14.8444 69.6176 13.952 68.6641 13.952C67.7105 13.952 66.9375 14.8444 66.9375 15.9452C66.9375 17.046 67.7105 17.9383 68.6641 17.9383Z" fill="black"/>
<path d="M45.8203 46.1492C44.7578 46.1492 44.0938 45.536 43.6953 45.076C42.5 43.0828 44.0937 39.4032 45.2891 37.41L47.5469 39.0965C46.75 40.4764 46.0859 42.3162 45.9531 43.0828H46.0859C48.4766 42.6229 51.7969 36.6434 53.2578 33.1171L55.6484 34.4969C55.25 35.5702 51 45.2293 46.4844 46.1492C46.3516 46.1492 46.0859 46.1492 45.8203 46.1492Z" fill="#F4C59C"/>
<path d="M56.8438 47.6824C55.7813 47.6824 54.9844 47.2224 54.4531 46.4558C53.3906 44.7693 54.3203 42.6228 54.4531 42.1628L56.8438 43.5427L55.7813 42.7761L56.9766 43.3894C56.8438 43.696 56.7109 44.156 56.7109 44.4626C56.8438 44.4626 57.1094 44.4626 57.6406 44.4626C61.0938 43.696 62.9531 41.7029 62.9531 41.7029L64.8125 43.8494C64.6797 44.0027 62.4219 46.4558 58.1719 47.3757C57.6406 47.6824 57.2422 47.6824 56.8438 47.6824Z" fill="#F4C59C"/>
</g>
<defs>
<clipPath id="clip0">
<rect width="54.366" height="49.1274" fill="white" transform="matrix(-0.334877 -0.942262 0.904044 -0.42744 83.2059 131.91)"/>
</clipPath>
<clipPath id="clip1">
<rect width="85" height="98.1246" fill="white"/>
</clipPath>
</defs>
</svg>
